<?xml version="1.0" encoding="utf-8"?>
<!-- Generator: Adobe Illustrator 25.1.0, SVG Export Plug-In . SVG Version: 6.00 Build 0)  -->
<svg version="1.1" id="Layer_1" xmlns="http://www.w3.org/2000/svg" xmlns:xlink="http://www.w3.org/1999/xlink" x="0px" y="0px"
	 viewBox="0 0 57.7 25" style="enable-background:new 0 0 57.7 25;" xml:space="preserve">
<style type="text/css">
	.st0{fill:#FFFFFF;}
	.st1{fill:#CCCCCC;}
	.st2{fill:#D22027;}
</style>
<g>
	<rect x="44.8" y="24.4" class="st0" width="0.3" height="0.4"/>
	<rect x="46.3" y="24.4" class="st1" width="0.3" height="0.4"/>
	<rect x="47.3" y="24.4" class="st1" width="0.3" height="0.4"/>
	<rect x="47.8" y="24.4" class="st0" width="0.3" height="0.4"/>
	<rect x="44.3" y="24.4" class="st0" width="0.3" height="0.4"/>
	<rect x="45.3" y="24.4" class="st0" width="0.7" height="0.4"/>
	<rect x="48.4" y="24.4" class="st1" width="0.7" height="0.4"/>
	<rect x="49.3" y="24.4" class="st0" width="0.7" height="0.4"/>
	<rect x="50.3" y="24.4" class="st0" width="0.7" height="0.4"/>
	<rect x="54" y="24.4" class="st0" width="0.3" height="0.4"/>
	<rect x="54.5" y="24.4" class="st1" width="0.3" height="0.4"/>
	<rect x="55.1" y="24.4" class="st1" width="0.7" height="0.4"/>
	<rect x="56" y="24.4" class="st0" width="0.7" height="0.4"/>
	<rect x="57" y="24.4" class="st0" width="0.7" height="0.4"/>
	<rect x="51.7" y="24.4" class="st1" width="0.7" height="0.4"/>
	<rect x="52.6" y="24.4" class="st0" width="0.7" height="0.4"/>
	<g>
		<path class="st0" d="M44.3,24.1v-4.3h2.1v0.7h-1.3v1h1.3v0.7h-1.3v1.8H44.3z"/>
		<path class="st0" d="M46.6,24.1v-0.7l1.5-1.4c0.3-0.3,0.5-0.6,0.5-0.9c0-0.4-0.3-0.7-0.6-0.7c-0.4,0-0.6,0.3-0.6,0.8h-0.7
			c0-0.1,0-0.1,0-0.1c0-0.8,0.6-1.4,1.4-1.4c0.8,0,1.4,0.6,1.4,1.4c0,0.4-0.1,0.7-0.4,1c0,0.1-0.1,0.1-0.2,0.2
			c-0.1,0.1-0.2,0.2-0.3,0.3l-0.9,0.8h1.7v0.8H46.6z"/>
		<path class="st0" d="M54,24.1V21l-1.9,3.2h-0.8V21l-1.9,3.2h-1l2.7-4.3h0.9v2.9l1.7-2.9h0.9v4.3H54z"/>
		<path class="st0" d="M55,24.1v-0.7l1.5-1.4c0.3-0.3,0.5-0.6,0.5-0.9c0-0.4-0.3-0.7-0.6-0.7c-0.4,0-0.6,0.3-0.6,0.8h-0.7
			c0-0.1,0-0.1,0-0.1c0-0.8,0.6-1.4,1.4-1.4c0.8,0,1.4,0.6,1.4,1.4c0,0.4-0.1,0.7-0.4,1c0,0.1-0.1,0.1-0.2,0.2
			c-0.1,0.1-0.2,0.2-0.3,0.3L56,23.4h1.7v0.8H55z"/>
	</g>
</g>
<g id="XMLID_142_">
	<path id="XMLID_189_" class="st2" d="M28.4,3.4c-1-1-2.3-1.6-3.8-1.6c-1.5,0-2.8,0.5-3.8,1.6s-1.6,2.3-1.6,3.8
		c0,1.5,0.5,2.8,1.6,3.8s2.3,1.6,3.8,1.6c1.5,0,2.8-0.5,3.8-1.6c1-1,1.6-2.3,1.6-3.8C30,5.7,29.5,4.4,28.4,3.4z M24.6,10.8
		c-2,0-3.6-1.6-3.6-3.6c0-2,1.6-3.6,3.6-3.6c2,0,3.6,1.6,3.6,3.6C28.2,9.2,26.6,10.8,24.6,10.8z"/>
	<path id="XMLID_174_" class="st0" d="M33.8,1.8h-2c-0.2,0-0.5,0.1-0.6,0.3c-0.2,0.2-0.3,0.4-0.3,0.6v9c0,0.2,0.1,0.5,0.3,0.6
		c0.2,0.2,0.4,0.3,0.6,0.3h2c1.5,0,2.8-0.5,3.8-1.6c1-1,1.6-2.3,1.6-3.8s-0.5-2.8-1.6-3.8C36.6,2.3,35.3,1.8,33.8,1.8z M37.4,7.1
		c0,1-0.4,1.8-1.1,2.5c-0.7,0.7-1.6,1.1-2.5,1.1h-1.1V3.5h1.1c1,0,1.8,0.4,2.5,1.1C37.1,5.3,37.4,6.2,37.4,7.1z"/>
	<path id="XMLID_173_" class="st0" d="M47.1,3.5c0.2,0,0.5-0.1,0.6-0.3C47.9,3.1,48,2.9,48,2.7c0-0.2-0.1-0.5-0.3-0.6
		c-0.2-0.2-0.4-0.3-0.6-0.3h-6c-0.2,0-0.5,0.1-0.6,0.3c-0.2,0.2-0.3,0.4-0.3,0.6v9c0,0.2,0.1,0.5,0.3,0.6c0.2,0.2,0.4,0.3,0.6,0.3h6
		c0.2,0,0.5-0.1,0.6-0.3c0.2-0.2,0.3-0.4,0.3-0.6c0-0.2-0.1-0.5-0.3-0.6c-0.2-0.2-0.4-0.3-0.6-0.3H42V8h3.6c0.2,0,0.5-0.1,0.6-0.3
		c0.2-0.2,0.3-0.4,0.3-0.6c0-0.2-0.1-0.5-0.3-0.6c-0.2-0.2-0.4-0.3-0.6-0.3H42V3.5H47.1z"/>
	<path id="XMLID_172_" class="st0" d="M57.4,2L57.4,2c-0.2-0.2-0.4-0.3-0.6-0.3c-0.4,0-0.7,0.2-0.8,0.5l-2.7,6.9l-2.7-6.9
		c-0.1-0.3-0.4-0.5-0.8-0.5c-0.2,0-0.5,0.1-0.6,0.3c-0.2,0.2-0.3,0.4-0.3,0.6c0,0.1,0,0.3,0.1,0.4l3.5,8.9c0,0.1,0.1,0.2,0.2,0.3
		c0.2,0.2,0.4,0.3,0.6,0.3c0.2,0,0.5-0.1,0.6-0.3c0.1-0.1,0.1-0.2,0.2-0.3l3.5-8.9c0.1-0.1,0.1-0.3,0.1-0.4
		C57.7,2.4,57.6,2.2,57.4,2z"/>
	<g id="XMLID_143_">
		<g id="XMLID_167_">
			<path id="XMLID_171_" class="st2" d="M17.3,11.2c-0.2,0-0.4,0.1-0.5,0.2c-1,0.8-2.1,1.2-3.4,1.2c-1.5,0-2.8-0.5-3.8-1.6
				S8,8.7,8,7.2s0.5-2.8,1.6-3.8c1-1,2.3-1.6,3.8-1.6c1.3,0,2.4,0.4,3.3,1.1c0.2,0.2,0.4,0.3,0.6,0.3c0.2,0,0.5-0.1,0.6-0.3
				c0.2-0.2,0.3-0.4,0.3-0.6c0-0.2-0.1-0.5-0.3-0.6l0,0C16.7,0.6,15.1,0,13.4,0c-1.9,0-3.5,0.6-4.8,1.9C8.5,1.9,8.5,1.9,8.4,2
				L2.7,7.7C2.4,8,2.4,8.6,2.7,8.9c0.3,0.3,0.9,0.3,1.3,0l0,0C4.4,8.7,4.9,8.7,5.2,9l0,0c0.3,0.3,0.3,0.9,0,1.3l-0.1,0.1l-2.3,2.3
				c-0.3,0.3-0.3,0.9,0,1.3c0.3,0.3,0.9,0.3,1.3,0l1.1-1.1c0.3-0.3,0.9-0.3,1.3,0c0.3,0.3,0.3,0.9,0,1.3l-3.7,3.7
				c-0.3,0.3-0.3,0.9,0,1.3v0c0.3,0.3,0.9,0.3,1.3,0l5-4.9l-0.2,0.2L9,14.1c0.3-0.3,0.9-0.3,1.3,0c0.3,0.3,0.3,0.9,0,1.3L10,15.6
				l-0.1,0.1l-0.8,0.8c-0.3,0.3-0.3,0.9,0,1.3c0.3,0.3,0.9,0.3,1.3,0l1.1-1.1l0,0l2.2-2.2c1.6-0.1,3-0.6,4.2-1.6l0,0
				c0.2-0.2,0.3-0.4,0.3-0.6c0-0.2-0.1-0.5-0.3-0.6C17.8,11.3,17.6,11.2,17.3,11.2z"/>
			<circle id="XMLID_170_" class="st2" cx="0.9" cy="15.8" r="0.9"/>
			<path id="XMLID_169_" class="st2" d="M1.5,11.4c0.3-0.3,0.3-0.9,0-1.3c-0.3-0.3-0.9-0.3-1.3,0c-0.3,0.3-0.3,0.9,0,1.3
				C0.6,11.8,1.2,11.8,1.5,11.4z"/>
			<path id="XMLID_168_" class="st2" d="M6.6,19c-0.3,0.3-0.3,0.9,0,1.3c0.3,0.3,0.9,0.3,1.3,0c0.3-0.3,0.3-0.9,0-1.3
				C7.5,18.6,7,18.6,6.6,19z"/>
		</g>
		<circle id="XMLID_166_" class="st2" cx="13.5" cy="7.2" r="3.6"/>
	</g>
</g>
</svg>
